Trial48_full_EMG.mot
version=1
nRows=16
nColumns=29
inDegrees=no
endheader
time	AddMag	AddLong	GlutMaxMed	GlutMed	Iliopsoas	Sartorius	SemiMemb	SemiTend	BicFemLong	RecFem	TenFascLat	Gracilis	BicFemShort	VastMed	VastLat	VastInt	GasMed	GasLat	TibAnt	TibPost	ExtHalLong	FlexHalLong	PeroneusLong	Sol	ExtDigLong	GlutMaxLat	FlexDigLong	RecFem2
0	0.00289917	0.00274658	-0.122223	0.000152588	0.00427246	-0.00442505	-0.0102234	0.01297	0.00930786	-0.0115967	0.0717163	0.0140381	-0.00778198	0.00518799	0.00549316	0.00717163	-0.0238037	-0.087738	-0.00747681	0.00823975	-0.0134277	0.00183105	0.0427246	0.131683	0.00473022	0.0741577	-0.00564575	-0.0166321
0.001	0.020752	0.00946045	-0.137482	0.00473022	0.00900269	-0.00579834	-0.0106812	0.00869751	0.00518799	0.00747681	0.0888062	0.0216675	0	0.0062561	0.00656128	0.0119019	0.0109863	-0.0827026	-0.0466919	0.0172424	-0.0189209	0.00305176	-0.072937	0.426941	0.00747681	0.0631714	0.000305176	-0.0126648
0.002	0.0160217	0.000610352	-0.175629	0.00808716	0.000610352	-0.000610352	-0.0088501	0.0242615	0.00991821	-0.01297	0.114899	0.0228882	0.00305176	0.000762939	0.0114441	0.00442505	-0.187988	-0.0489807	-0.0628662	0.0175476	-0.0157166	-0.00549316	-0.166168	0.440826	0.00549316	0.0674438	-0.000152588	-0.00274658
0.003	0.00747681	-0.000152588	-0.198669	0.0038147	0.0062561	-0.00228882	0.000305176	0.00793457	-0.00106812	-0.0177002	0.138855	0.0257874	0.0050354	0.000457764	0.0137329	0.00671387	-0.569305	0.0172424	-0.0640869	0.00213623	-0.0308228	-0.0144958	-0.0679016	0.378723	0.014801	0.0590515	0.000762939	-0.0109863
0.004	0.00396729	0.00442505	-0.205078	0.00564575	0.0131226	-0.00167847	-0.00534058	0.00473022	0.00457764	-0.015564	0.150909	0.0250244	0.00930786	0.00305176	0.0146484	0.0105286	-0.767975	-0.00808716	-0.0306702	-0.018158	-0.00427246	-0.00457764	0.0120544	0.461426	0.0180054	0.0415039	0.000457764	-0.0216675
0.005	0.0263977	0.0050354	-0.220642	0.00671387	0.00518799	-0.0038147	-0.000152588	0.00976563	0.00991821	-0.0186157	0.0228882	0.0376892	-0.00915527	-0.00152588	0.0202942	0.00579834	-0.743256	-0.0520325	-0.0465393	0.00152588	-0.00167847	-0.00732422	-0.0485229	0.51178	0.0125122	0.0360107	-0.00259399	-0.0190735
0.006	0.0144958	0.00488281	-0.229797	-0.00640869	0.00793457	-0.0012207	-0.00732422	0.0169373	0.01297	-0.0115967	-0.0805664	0.0331116	0.00228882	-0.00274658	0.0242615	0.00579834	-0.855865	-0.0933838	-0.0387573	0.0143433	0.0167847	-0.0120544	-0.0579834	-0.166473	0.019989	0.058136	-0.00335693	-0.0262451
0.007	-0.000152588	0.00473022	-0.224915	-0.00640869	0.00534058	-0.00335693	0.00198364	0.0189209	0.00549316	-0.0228882	-0.109558	0.0308228	0.000915527	-0.00274658	0.019989	0.00274658	-0.779266	-0.132751	-0.0205994	0.0138855	0.0137329	-0.037384	-0.0592041	-0.635986	0.0170898	0.0785828	-0.00442505	-0.0186157
0.008	0.0132751	0.00366211	-0.228729	0.00183105	-0.000610352	-0.00396729	-0.00732422	0.0166321	0.00900269	-0.0128174	-0.0665283	0.0238037	0.010376	-0.000457764	0.014801	0.0163269	0.0234985	-0.179443	-0.0392151	0.00518799	0.0202942	0.0131226	-0.0691223	-0.473633	0.0163269	0.0584412	-0.000610352	-0.0219727
0.009	0.0108337	0.00183105	-0.223999	0.0038147	0.00244141	0.00305176	-0.00534058	0.0135803	0.00793457	0.000305176	-0.0563049	0.0372314	0.00717163	-0.000610352	0.0108337	0.00396729	0.431519	-0.307007	-0.037384	-0.0372314	0.00656128	0.0364685	-0.0498962	-0.300903	0.0132751	0.0563049	-0.00106812	-0.0222778
0.01	0.00610352	0.00640869	-0.216217	0.00778198	0.00473022	-0.00579834	-0.00686646	0.00823975	0.00823975	-0.0038147	-0.0799561	0.0297546	-0.00274658	-0.000915527	0.00442505	0.00396729	0.180969	-0.307007	-0.0343323	-0.0582886	0.00289917	-0.252686	-0.0370789	-0.0953674	0.0135803	0.0602722	-0.00183105	-0.0227356
0.011	0.0234985	0.00473022	-0.224609	0.00228882	0.000610352	0.00152588	-0.00762939	0.0134277	0.00320435	-0.00106812	-0.0456238	0.0227356	-0.00289917	0.00183105	0.012207	0.00808716	-0.0326538	-0.142059	-0.0413513	-0.0682068	-0.00183105	-0.37384	-0.0871277	-0.0692749	0.0106812	0.0534058	-0.00732422	-0.0149536
0.012	0.0280762	-0.00167847	-0.228577	0.000915527	0.00793457	-0.00854492	-0.0126648	0.0154114	0.00671387	0.00335693	0.00610352	0.0141907	-0.000457764	-0.00167847	0.00366211	0.00305176	-0.168915	-0.139618	-0.01297	-0.115051	-0.00762939	0.402527	-0.0985718	-0.0526428	0.0172424	0.0485229	-0.00427246	-0.0239563
0.013	0.0114441	0.00717163	-0.253601	0.0050354	0.00534058	0.00335693	-0.00228882	0.0169373	-0.00488281	-0.00656128	0.0210571	0.00930786	-0.00686646	0.00411987	-0.00595093	0.00274658	-0.117035	-0.121002	0.0276184	0.361633	-0.0126648	0.218048	-0.0875854	0.0979614	0.0184631	0.0665283	-0.00213623	-0.0198364
0.014	0.0138855	0.00335693	-0.2388	0.0102234	0.0038147	-0.000457764	-0.00793457	0.015564	0.00259399	-0.00350952	0.0370789	0.0038147	0.00183105	-0.00198364	-0.0119019	0.00869751	0.76828	-0.10498	0.00411987	-0.0541687	-0.0178528	0.0547791	0.0776672	0.397034	0.0195313	0.0575256	-0.00289917	-0.00823975
0.015	0.00686646	0.00320435	-0.233459	0.00640869	0.00823975	0.00671387	-0.0112915	0.0222778	0.00427246	0.000152588	-0.00213623	0	0.00244141	0.00106812	-0.0230408	0.00656128	1.36307	-0.157623	-0.0239563	-0.0979614	-0.0144958	0.0532532	0.123596	0.416412	0.0169373	0.0663757	-0.00335693	-0.0212097
